<svg version="1.1" id="Layer_1" xmlns="http://www.w3.org/2000/svg" xmlns:xlink="http://www.w3.org/1999/xlink" x="0px" y="0px"
	 width="100%" viewBox="0 0 655 131" enable-background="new 0 0 655 131" xml:space="preserve">
<path fill="transparent" opacity="1.000000" stroke="none" 
	d="
M621.000000,132.000000 
	C414.000031,132.000000 207.500076,132.000000 1.000083,132.000000 
	C1.000055,88.333382 1.000055,44.666756 1.000028,1.000101 
	C219.333252,1.000067 437.666504,1.000067 655.999817,1.000034 
	C655.999878,44.666576 655.999878,88.333153 655.999939,131.999863 
	C644.500000,132.000000 633.000000,132.000000 621.000000,132.000000 
M144.630249,64.376625 
	C144.630249,64.376625 144.417786,64.245018 144.149185,63.740364 
	C143.453094,63.455887 142.757019,63.171410 142.019623,62.968357 
	C142.019623,62.968357 142.104340,62.934307 141.769974,62.278713 
	C136.640305,58.467384 139.702759,53.731373 140.330597,49.289551 
	C140.865753,45.503353 141.502029,41.731453 142.013031,37.193722 
	C141.579132,33.243832 139.748566,34.889709 138.194336,36.325699 
	C135.063538,39.218323 132.031952,42.218319 128.444809,45.143009 
	C128.250671,45.418049 128.056519,45.693092 127.299591,46.178566 
	C126.520271,47.073700 125.740944,47.968834 124.268776,48.995277 
	C121.728096,51.284805 119.103226,53.488628 116.665733,55.883190 
	C112.634445,59.843475 112.816353,60.807045 117.337318,64.093445 
	C120.996292,66.753242 123.543709,69.694420 121.199646,74.854439 
	C120.121307,77.228241 120.472054,80.251244 120.024048,83.781563 
	C119.678352,85.698486 119.229645,87.604996 119.034103,89.537109 
	C118.947365,90.394096 119.372253,91.302864 119.564911,92.188126 
	C120.473259,91.861275 121.534256,91.732704 122.262573,91.172005 
	C124.903656,89.138710 127.433182,86.960510 130.653366,84.796127 
	C131.913147,83.453629 133.172928,82.111130 134.635544,80.628990 
	C134.635544,80.628990 134.774368,80.425621 135.283081,80.121170 
	C137.561859,77.760979 139.840637,75.400787 142.732666,72.710686 
	C143.527771,70.827301 144.322876,68.943909 145.662506,66.809563 
	C145.366470,66.066643 145.070450,65.323715 144.630249,64.376625 
M194.178970,50.327686 
	C194.119705,59.294666 193.947021,68.263977 194.130676,77.225975 
	C194.156464,78.484802 195.855560,80.704918 196.901489,80.779572 
	C202.190491,81.157074 207.532181,81.167931 212.824524,80.827415 
	C213.946487,80.755234 214.939590,78.680138 215.992065,77.527847 
	C214.833389,76.685631 213.727798,75.221550 212.506104,75.117226 
	C208.767609,74.797981 204.984512,75.001198 201.250397,75.001198 
	C201.250397,71.382591 201.250397,68.304535 201.250397,65.218765 
	C203.947372,65.028084 206.427277,65.024055 208.828903,64.588425 
	C209.650314,64.439423 210.848709,63.194290 210.831451,62.474991 
	C210.813660,61.732819 209.611450,60.533405 208.777756,60.387119 
	C206.235504,59.941048 203.621140,59.905918 201.061920,59.712894 
	C201.077515,54.040421 201.080994,54.138771 206.113373,53.960873 
	C208.791443,53.866196 211.455063,53.362064 214.828217,52.692348 
	C215.222107,50.440567 215.574997,48.221905 211.114777,49.032372 
	C208.741776,49.079868 206.368790,49.127369 203.129623,49.012688 
	C200.405579,49.310650 197.681534,49.608612 194.178970,50.327686 
M334.068390,49.031631 
	C328.710815,49.078457 323.353271,49.125282 317.457367,49.064312 
	C317.265594,49.362431 317.073822,49.660553 316.137756,50.383759 
	C316.137756,60.284740 316.137756,70.185722 316.137756,80.281593 
	C317.511261,80.591675 318.423981,81.002083 319.319122,80.966835 
	C325.384003,80.728073 331.769226,79.053673 337.428284,80.420776 
	C345.086090,82.270729 347.098846,77.889290 349.623047,72.916656 
	C349.822571,72.523529 350.360687,72.302261 351.014252,71.785370 
	C355.314514,74.183151 355.285767,84.626022 364.328064,79.530342 
	C361.676025,75.221169 359.391174,71.165878 356.753265,67.355003 
	C355.245850,65.177330 355.392548,63.639629 356.868408,61.512775 
	C359.505676,57.712219 361.755280,53.642632 364.355316,49.376392 
	C355.396484,44.630424 355.345398,54.834126 350.664429,57.323902 
	C349.033844,54.840446 347.866364,52.228325 345.943787,50.418144 
	C344.590729,49.144165 342.211029,48.960545 340.289734,48.290077 
	C340.317322,50.148705 339.773621,52.275467 340.493469,53.809177 
	C341.916412,56.840946 344.213776,59.452435 345.779785,62.432087 
	C346.358124,63.532459 346.391754,65.442528 345.817200,66.531265 
	C343.759064,70.431511 341.334076,74.138176 339.055847,77.904770 
	C334.838776,72.080734 328.364716,76.669250 323.218994,74.504852 
	C323.218994,71.466469 323.218994,68.386337 323.218994,65.470009 
	C326.657745,64.949707 329.867126,64.464111 333.076477,63.978512 
	C333.141327,63.225071 333.206177,62.471630 333.270996,61.718189 
	C329.929413,60.880249 326.587830,60.042309 323.280579,59.212975 
	C323.280579,57.696499 323.280579,55.959915 323.280579,54.468559 
	C327.737457,53.996716 331.893372,53.556728 336.750641,53.010494 
	C338.414368,51.411339 338.305084,51.173130 334.068390,49.031631 
M524.053101,72.551712 
	C524.541870,69.475128 525.030640,66.398537 525.563904,63.041622 
	C531.465332,69.333176 537.123840,75.365677 542.649048,81.256172 
	C547.003967,79.002419 545.402161,76.115814 545.166931,73.004883 
	C544.641113,66.052353 545.106384,59.029781 544.899475,52.043678 
	C544.862488,50.795506 543.534180,49.585583 542.802124,48.357990 
	C541.337341,49.260601 539.310364,49.841595 538.560059,51.153004 
	C537.750916,52.567188 538.057251,54.663334 538.018799,56.465004 
	C537.953979,59.503887 538.001038,62.545151 538.001038,66.857819 
	C533.264343,61.614597 529.473022,57.109501 525.319092,52.967979 
	C523.603394,51.257374 520.566956,48.823029 519.084656,49.358284 
	C516.107300,50.433430 516.668091,53.701534 517.972046,56.381195 
	C518.103577,56.651497 517.997498,57.038593 517.997681,57.371494 
	C518.000244,64.182060 517.854736,70.999084 518.152039,77.796745 
	C518.200623,78.907616 520.201782,79.933090 521.300415,80.998024 
	C522.527710,79.699265 524.101074,78.569008 524.847473,77.036125 
	C525.269226,76.170013 524.331177,74.641777 524.053101,72.551712 
M393.998383,76.201294 
	C393.490234,79.244934 394.818634,81.088165 397.856293,80.940216 
	C403.669220,80.657104 399.505371,75.489357 401.568390,73.151993 
	C405.281219,72.233589 407.268066,74.243919 409.180084,77.379692 
	C411.166809,80.637924 414.059204,82.893463 418.427246,79.205353 
	C416.546539,76.683952 414.740479,74.262611 412.768982,71.619507 
	C413.667023,70.792885 414.467804,69.968933 415.355560,69.252769 
	C421.106812,64.612991 420.766907,56.168758 415.082794,51.449940 
	C410.275787,47.459293 404.788544,48.190735 399.322693,47.978130 
	C395.539948,47.830994 393.912170,49.488327 393.967773,53.276382 
	C394.075348,60.603561 393.998657,67.933449 393.998383,76.201294 
M246.001862,78.000748 
	C247.331894,78.993515 248.661942,79.986290 249.991974,80.979057 
	C250.986404,79.624931 252.719482,78.332306 252.838272,76.905281 
	C253.210831,72.430641 252.975266,67.905365 252.975266,62.799397 
	C254.921158,64.647934 256.404144,65.930267 257.740753,67.350403 
	C261.605072,71.456200 265.361725,75.664680 269.284790,79.712540 
	C269.975769,80.425507 271.385681,81.024467 272.240265,80.805290 
	C272.883820,80.640244 273.565033,79.078079 273.554047,78.145775 
	C273.453217,69.591988 273.162018,61.040607 273.025848,52.486942 
	C272.985962,49.980289 272.875854,47.193253 269.568909,48.237759 
	C268.241577,48.657009 267.124573,51.562782 266.948425,53.434372 
	C266.559174,57.570164 266.827362,61.767834 266.827362,65.940262 
	C266.180023,66.363518 265.532684,66.786774 264.885345,67.210037 
	C263.826263,65.541763 262.958862,63.705532 261.671844,62.237038 
	C257.958221,57.999825 254.132309,53.855747 250.208328,49.813076 
	C249.478424,49.061100 248.060745,48.611115 247.012665,48.692631 
	C246.511917,48.731575 245.757523,50.341583 245.757797,51.239803 
	C245.760437,59.857346 245.899796,68.474846 246.001862,78.000748 
M289.816162,49.752789 
	C289.544067,51.149754 289.051849,52.544350 289.036804,53.944084 
	C288.957886,61.270992 288.995941,68.599205 289.002350,75.926964 
	C289.004517,78.389816 288.425659,81.037094 292.451569,81.066086 
	C296.426880,81.094719 296.026428,78.552765 296.004089,76.019211 
	C295.978699,73.137115 295.450653,69.982178 299.381592,69.014565 
	C309.671875,82.653633 309.671875,82.653633 313.889832,79.216766 
	C311.268005,74.984390 309.105713,70.364220 305.889038,66.659554 
	C303.326233,63.707939 304.082794,61.844433 306.016998,59.517662 
	C308.706146,56.282715 311.426270,53.073483 314.618622,49.275665 
	C303.194946,45.385468 302.631714,57.768433 295.999451,60.551888 
	C295.999451,59.160484 295.999451,57.856190 295.999420,56.551899 
	C295.999359,55.053040 296.234467,53.507950 295.950836,52.064823 
	C295.335205,48.932487 294.090637,46.547180 289.816162,49.752789 
M227.919754,69.628014 
	C229.863693,71.861183 232.144821,73.885925 233.681046,76.371132 
	C236.833130,81.470345 238.489868,82.146935 243.750778,79.395805 
	C240.110138,73.893272 236.474594,68.398422 232.799500,62.843815 
	C236.339325,58.384277 239.751953,54.084984 243.622650,49.208603 
	C241.749008,48.704460 239.838364,47.614410 239.220306,48.116264 
	C234.756439,51.740803 230.554062,55.687393 225.329803,60.374420 
	C225.197372,57.414261 225.535522,54.974003 224.844238,52.872356 
	C224.344437,51.352814 222.477417,50.282986 221.220139,49.012596 
	C220.145859,50.311268 218.189209,51.578613 218.141785,52.913750 
	C217.853134,61.043522 218.072144,69.189735 217.959915,77.328217 
	C217.920349,80.197212 219.120285,81.227493 221.844131,81.016785 
	C224.643097,80.800278 225.241379,79.295387 225.345917,76.654068 
	C225.433258,74.447632 226.641144,72.285545 227.919754,69.628014 
M365.998260,59.535614 
	C365.998444,65.515404 365.805115,71.506630 366.156921,77.465660 
	C366.230103,78.705078 368.322418,79.825302 369.484192,81.000443 
	C370.655670,79.834015 372.916718,78.559837 372.813812,77.519447 
	C372.314209,72.467239 374.760620,71.543037 379.008423,71.958801 
	C382.619812,72.312263 385.859406,71.606682 388.321259,68.366005 
	C391.505188,64.174919 391.850464,59.674416 389.905182,55.153328 
	C387.943970,50.595181 383.673340,48.621616 379.031982,48.056469 
	C366.786499,46.565411 366.001099,47.300163 365.998260,59.535614 
M421.998779,68.474213 
	C421.999176,71.305290 422.135345,74.144669 421.963135,76.965202 
	C421.777924,79.997520 422.961365,81.179787 426.015442,81.044235 
	C430.004364,80.867203 434.021637,80.787148 438.000183,81.056816 
	C442.721100,81.376816 443.854156,79.375534 442.451660,74.832321 
	C438.031219,74.832321 433.608612,74.832321 429.270264,74.832321 
	C429.270264,71.344818 429.270264,68.259712 429.270264,65.201958 
	C437.950531,64.733467 437.950531,64.733467 437.445038,59.855743 
	C434.726990,59.855743 431.966980,59.855743 429.253479,59.855743 
	C429.253479,57.718414 429.253479,55.973495 429.253479,54.289536 
	C433.910431,54.289536 438.318176,54.289536 442.804413,54.289536 
	C443.369141,49.915260 441.999268,47.940769 438.093170,47.989620 
	C434.430023,48.035435 430.764191,48.067516 427.102539,47.980381 
	C423.599030,47.897015 421.909790,49.404766 421.977692,52.996109 
	C422.068909,57.823849 421.999329,62.654625 421.998779,68.474213 
M496.956207,48.027279 
	C495.970703,49.418095 494.178894,50.782627 494.132568,52.204067 
	C493.861786,60.510681 494.065643,68.831436 493.962250,77.145592 
	C493.928406,79.867569 494.818726,81.121414 497.684814,81.035851 
	C502.171112,80.901917 506.685425,81.242813 511.142120,80.855827 
	C512.503052,80.737656 513.713745,78.889755 514.993225,77.834015 
	C513.768860,76.889481 512.612671,75.260567 511.307190,75.130470 
	C507.590363,74.760048 503.812653,75.000420 500.000946,75.000420 
	C500.000946,73.010300 500.143860,71.662689 499.974304,70.355621 
	C499.450653,66.318733 500.839905,64.270813 505.175873,64.990089 
	C505.661407,65.070625 506.306244,65.196945 506.646423,64.964409 
	C507.814941,64.165680 508.880829,63.216850 509.985840,62.325203 
	C508.931580,61.550247 507.966736,60.339180 506.802551,60.100525 
	C504.965546,59.723949 502.994659,60.000336 500.902618,60.000336 
	C501.033997,57.582813 501.128265,55.848137 501.228699,54.000298 
	C504.487427,54.000298 507.338562,54.263489 510.107422,53.899925 
	C511.724609,53.687580 513.210266,52.473644 514.755127,51.710323 
	C513.122437,50.473587 511.603333,48.412331 509.833771,48.168442 
	C505.916870,47.628597 501.874146,48.002068 496.956207,48.027279 
M485.163452,54.999210 
	C486.488373,53.941654 487.813293,52.884098 489.594299,51.462471 
	C487.189636,50.205257 485.683289,49.263466 484.063141,48.599216 
	C478.941315,46.499279 472.011871,49.008835 469.837708,53.660606 
	C467.780640,58.061859 469.606537,61.477997 475.407532,64.890427 
	C478.037262,66.437378 480.444519,68.405983 482.767853,70.398842 
	C483.327179,70.878571 483.521637,72.368721 483.212402,73.116562 
	C482.882263,73.915024 481.701294,74.961632 480.989410,74.892616 
	C478.616821,74.662552 476.298615,73.660927 473.938782,73.582909 
	C472.320312,73.529411 470.667389,74.519577 469.029846,75.043205 
	C469.865417,76.390518 470.460022,78.618767 471.580322,78.925224 
	C475.429749,79.978188 479.594940,81.252708 483.382233,80.694771 
	C486.109955,80.292915 489.523285,77.590172 490.646851,75.039734 
	C492.008392,71.949051 491.768127,67.783829 487.908661,65.425568 
	C485.446899,63.921360 482.853180,62.596771 480.548004,60.883083 
	C478.382355,59.273079 475.253326,57.785381 477.907593,53.684483 
	C479.950928,54.101566 482.141632,54.548721 485.163452,54.999210 
M446.029205,52.788624 
	C445.914185,54.275711 445.664642,55.766682 445.707458,57.249207 
	C445.893158,63.675159 452.180969,64.070000 455.611877,67.315697 
	C457.400238,69.007530 458.473907,71.454826 459.870392,73.560883 
	C457.402832,73.977264 454.940460,74.431786 452.462036,74.768272 
	C452.096741,74.817863 451.637604,74.332764 451.252228,74.053230 
	C448.308929,71.918190 446.478546,73.311203 444.992218,75.924225 
	C448.600281,80.479622 455.575409,82.590958 460.766907,80.752518 
	C467.185913,78.479385 469.261414,71.401291 464.832428,66.416557 
	C463.453003,64.863991 461.628052,63.681461 459.916718,62.455582 
	C457.309631,60.587986 454.623932,58.830132 451.971619,57.025669 
	C452.044403,56.399544 452.117188,55.773415 452.189972,55.147285 
	C454.552429,54.995644 456.973236,55.110981 459.259705,54.611496 
	C461.241516,54.178562 463.071106,53.048702 464.967957,52.226864 
	C463.685303,51.145172 462.557709,49.738415 461.092468,49.039501 
	C455.501160,46.372478 450.750061,48.434837 446.029205,52.788624 
M175.486115,54.007763 
	C175.990768,55.161221 176.904892,56.305187 176.931900,57.469723 
	C177.078598,63.795853 177.005112,70.127052 177.010193,76.456512 
	C177.011932,78.616798 176.636230,81.059319 179.985367,80.991417 
	C182.995026,80.930397 184.153473,79.489487 184.067017,76.356445 
	C183.862061,68.930130 184.001099,61.494320 184.001099,54.093708 
	C192.176025,53.896976 192.176025,53.896976 192.841019,50.269150 
	C184.916382,50.269150 177.014679,50.269150 169.015335,50.269150 
	C168.847153,54.980980 172.131851,53.822926 175.486115,54.007763 
M285.001617,76.195381 
	C284.999298,68.029755 285.121552,59.860180 284.863098,51.702660 
	C284.823425,50.449406 283.225220,48.594196 281.989197,48.228062 
	C280.924225,47.912598 278.665558,48.989868 278.150360,50.044998 
	C277.275604,51.836395 277.032349,54.104759 277.095062,56.155201 
	C277.328369,63.785770 277.794250,71.409225 278.212769,79.839386 
	C281.767792,82.126465 283.975555,81.583504 285.001617,76.195381 
z"/>
<path fill="#FEFEFE" opacity="1.000000" stroke="none" 
	d="
M336.049286,53.116745 
	C331.893372,53.556728 327.737457,53.996716 323.280579,54.468559 
	C323.280579,55.959915 323.280579,57.696499 323.280579,59.212975 
	C326.587830,60.042309 329.929413,60.880249 333.270996,61.718189 
	C333.206177,62.471630 333.141327,63.225071 333.076477,63.978512 
	C329.867126,64.464111 326.657745,64.949707 323.218994,65.470009 
	C323.218994,68.386337 323.218994,71.466469 323.218994,74.504852 
	C328.364716,76.669250 334.838776,72.080734 339.055847,77.904770 
	C341.334076,74.138176 343.759064,70.431511 345.817200,66.531265 
	C346.391754,65.442528 346.358124,63.532459 345.779785,62.432087 
	C344.213776,59.452435 341.916412,56.840946 340.493469,53.809177 
	C339.773621,52.275467 340.317322,50.148705 340.289734,48.290073 
	C342.211029,48.960545 344.590729,49.144165 345.943787,50.418144 
	C347.866364,52.228325 349.033844,54.840446 350.664429,57.323902 
	C355.345398,54.834126 355.396484,44.630424 364.355316,49.376392 
	C361.755280,53.642632 359.505676,57.712219 356.868408,61.512775 
	C355.392548,63.639629 355.245850,65.177330 356.753265,67.355003 
	C359.391174,71.165878 361.676025,75.221169 364.328064,79.530342 
	C355.285767,84.626022 355.314514,74.183151 351.014252,71.785370 
	C350.360687,72.302261 349.822571,72.523529 349.623047,72.916656 
	C347.098846,77.889290 345.086090,82.270729 337.428284,80.420776 
	C331.769226,79.053673 325.384003,80.728073 319.319122,80.966835 
	C318.423981,81.002083 317.511261,80.591675 316.137756,80.281593 
	C316.137756,70.185722 316.137756,60.284740 316.738586,50.110268 
	C317.630219,49.686371 317.848969,49.464813 317.995697,49.172112 
	C323.353271,49.125282 328.710815,49.078457 334.536194,49.451103 
	C335.352417,50.952633 335.700867,52.034691 336.049286,53.116745 
z"/>
<path fill="#2563EB" opacity="1.000000" stroke="none" 
	d="
M128.959442,45.174026 
	C132.031952,42.218319 135.063538,39.218323 138.194336,36.325699 
	C139.748566,34.889709 141.579132,33.243832 141.762634,37.801098 
	C140.007599,44.740345 138.280060,51.030621 137.087708,57.420761 
	C136.443497,60.873329 138.174835,63.147530 142.104340,62.934307 
	C142.104340,62.934307 142.019623,62.968357 142.072174,63.296928 
	C142.889069,63.832008 143.653427,64.038513 144.417786,64.245018 
	C144.417786,64.245018 144.630249,64.376625 144.474106,64.787292 
	C144.584625,65.818810 144.851303,66.439667 145.117981,67.060516 
	C144.322876,68.943909 143.527771,70.827301 142.051666,72.867126 
	C137.812759,74.279724 134.454468,75.713768 134.774368,80.425621 
	C134.774368,80.425621 134.635544,80.628990 134.198807,80.478668 
	C132.509644,81.831230 131.257217,83.334106 130.004791,84.836975 
	C127.433182,86.960510 124.903656,89.138710 122.262573,91.172005 
	C121.534256,91.732704 120.473259,91.861275 119.564911,92.188126 
	C119.372253,91.302864 118.947365,90.394096 119.034103,89.537109 
	C119.229645,87.604996 119.678352,85.698486 120.452560,83.311012 
	C122.213394,78.700813 125.171600,74.239120 124.432892,70.509697 
	C123.652786,66.571297 119.348305,63.330994 116.569138,59.767399 
	C119.233009,56.306526 122.097313,52.585247 124.961624,48.863968 
	C125.740944,47.968834 126.520271,47.073700 127.803947,46.001080 
	C128.607620,45.689548 128.824661,45.473026 128.959442,45.174026 
z"/>
<path fill="#FEFEFE" opacity="1.000000" stroke="none" 
	d="
M524.029419,72.981743 
	C524.331177,74.641777 525.269226,76.170013 524.847473,77.036125 
	C524.101074,78.569008 522.527710,79.699265 521.300415,80.998032 
	C520.201782,79.933090 518.200623,78.907616 518.152039,77.796745 
	C517.854736,70.999084 518.000244,64.182060 517.997681,57.371494 
	C517.997498,57.038593 518.103577,56.651497 517.972046,56.381195 
	C516.668091,53.701534 516.107300,50.433430 519.084656,49.358284 
	C520.566956,48.823029 523.603394,51.257374 525.319092,52.967979 
	C529.473022,57.109501 533.264343,61.614597 538.001038,66.857819 
	C538.001038,62.545151 537.953979,59.503887 538.018799,56.465004 
	C538.057251,54.663334 537.750916,52.567188 538.560059,51.153004 
	C539.310364,49.841595 541.337341,49.260601 542.802124,48.357994 
	C543.534180,49.585583 544.862488,50.795506 544.899475,52.043678 
	C545.106384,59.029781 544.641113,66.052353 545.166931,73.004883 
	C545.402161,76.115814 547.003967,79.002419 542.649048,81.256172 
	C537.123840,75.365677 531.465332,69.333176 525.563904,63.041622 
	C525.030640,66.398537 524.541870,69.475128 524.029419,72.981743 
z"/>
<path fill="#FEFEFE" opacity="1.000000" stroke="none" 
	d="
M393.998352,75.731750 
	C393.998657,67.933449 394.075348,60.603561 393.967773,53.276382 
	C393.912170,49.488327 395.539948,47.830994 399.322693,47.978130 
	C404.788544,48.190735 410.275787,47.459293 415.082794,51.449940 
	C420.766907,56.168758 421.106812,64.612991 415.355560,69.252769 
	C414.467804,69.968933 413.667023,70.792885 412.768982,71.619507 
	C414.740479,74.262611 416.546539,76.683952 418.427246,79.205353 
	C414.059204,82.893463 411.166809,80.637924 409.180084,77.379692 
	C407.268066,74.243919 405.281219,72.233589 401.568390,73.151993 
	C399.505371,75.489357 403.669220,80.657104 397.856293,80.940216 
	C394.818634,81.088165 393.490234,79.244934 393.998352,75.731750 
M406.123383,54.027031 
	C400.436554,54.165684 399.358154,57.305161 401.707458,67.002792 
	C405.590698,66.620659 410.615295,68.668388 411.933929,62.622227 
	C412.832550,58.501957 411.663055,55.236401 406.123383,54.027031 
z"/>
<path fill="#FEFEFE" opacity="1.000000" stroke="none" 
	d="
M246.000916,77.546555 
	C245.899796,68.474846 245.760437,59.857346 245.757797,51.239803 
	C245.757523,50.341583 246.511917,48.731575 247.012665,48.692631 
	C248.060745,48.611115 249.478424,49.061100 250.208328,49.813076 
	C254.132309,53.855747 257.958221,57.999825 261.671844,62.237038 
	C262.958862,63.705532 263.826263,65.541763 264.885345,67.210037 
	C265.532684,66.786774 266.180023,66.363518 266.827362,65.940262 
	C266.827362,61.767834 266.559174,57.570164 266.948425,53.434372 
	C267.124573,51.562782 268.241577,48.657009 269.568909,48.237759 
	C272.875854,47.193253 272.985962,49.980289 273.025848,52.486942 
	C273.162018,61.040607 273.453217,69.591988 273.554047,78.145775 
	C273.565033,79.078079 272.883820,80.640244 272.240265,80.805290 
	C271.385681,81.024467 269.975769,80.425507 269.284790,79.712540 
	C265.361725,75.664680 261.605072,71.456200 257.740753,67.350403 
	C256.404144,65.930267 254.921158,64.647934 252.975266,62.799397 
	C252.975266,67.905365 253.210831,72.430641 252.838272,76.905281 
	C252.719482,78.332306 250.986404,79.624931 249.991974,80.979057 
	C248.661942,79.986290 247.331894,78.993515 246.000916,77.546555 
z"/>
<path fill="#FEFEFE" opacity="1.000000" stroke="none" 
	d="
M290.086578,49.426788 
	C294.090637,46.547180 295.335205,48.932487 295.950836,52.064823 
	C296.234467,53.507950 295.999359,55.053040 295.999420,56.551899 
	C295.999451,57.856190 295.999451,59.160484 295.999451,60.551888 
	C302.631714,57.768433 303.194946,45.385468 314.618622,49.275665 
	C311.426270,53.073483 308.706146,56.282715 306.016998,59.517662 
	C304.082794,61.844433 303.326233,63.707939 305.889038,66.659554 
	C309.105713,70.364220 311.268005,74.984390 313.889832,79.216766 
	C309.671875,82.653633 309.671875,82.653633 299.381592,69.014565 
	C295.450653,69.982178 295.978699,73.137115 296.004089,76.019211 
	C296.026428,78.552765 296.426880,81.094719 292.451569,81.066086 
	C288.425659,81.037094 289.004517,78.389816 289.002350,75.926964 
	C288.995941,68.599205 288.957886,61.270992 289.036804,53.944084 
	C289.051849,52.544350 289.544067,51.149754 290.086578,49.426788 
z"/>
<path fill="#FDFEFE" opacity="1.000000" stroke="none" 
	d="
M227.636276,69.865913 
	C226.641144,72.285545 225.433258,74.447632 225.345917,76.654068 
	C225.241379,79.295387 224.643097,80.800278 221.844131,81.016785 
	C219.120285,81.227493 217.920349,80.197212 217.959915,77.328217 
	C218.072144,69.189735 217.853134,61.043522 218.141785,52.913750 
	C218.189209,51.578613 220.145859,50.311268 221.220139,49.012596 
	C222.477417,50.282986 224.344437,51.352814 224.844238,52.872356 
	C225.535522,54.974003 225.197372,57.414261 225.329803,60.374420 
	C230.554062,55.687393 234.756439,51.740803 239.220306,48.116264 
	C239.838364,47.614410 241.749008,48.704460 243.622650,49.208603 
	C239.751953,54.084984 236.339325,58.384277 232.799500,62.843815 
	C236.474594,68.398422 240.110138,73.893272 243.750778,79.395805 
	C238.489868,82.146935 236.833130,81.470345 233.681046,76.371132 
	C232.144821,73.885925 229.863693,71.861183 227.636276,69.865913 
z"/>
<path fill="#FEFEFD" opacity="1.000000" stroke="none" 
	d="
M365.998352,59.043991 
	C366.001099,47.300163 366.786499,46.565411 379.031982,48.056469 
	C383.673340,48.621616 387.943970,50.595181 389.905182,55.153328 
	C391.850464,59.674416 391.505188,64.174919 388.321259,68.366005 
	C385.859406,71.606682 382.619812,72.312263 379.008423,71.958801 
	C374.760620,71.543037 372.314209,72.467239 372.813812,77.519447 
	C372.916718,78.559837 370.655670,79.834015 369.484192,81.000450 
	C368.322418,79.825302 366.230103,78.705078 366.156921,77.465660 
	C365.805115,71.506630 365.998444,65.515404 365.998352,59.043991 
M381.276062,66.157043 
	C383.983582,63.534374 385.205688,60.507927 382.963043,57.099281 
	C380.576080,53.471291 376.885559,53.874802 373.212616,54.142448 
	C373.212616,58.595745 373.212616,62.652153 373.212616,66.802299 
	C375.854370,66.802299 378.283051,66.802299 381.276062,66.157043 
z"/>
<path fill="#FEFEFE" opacity="1.000000" stroke="none" 
	d="
M421.998779,67.979156 
	C421.999329,62.654625 422.068909,57.823849 421.977692,52.996109 
	C421.909790,49.404766 423.599030,47.897015 427.102539,47.980381 
	C430.764191,48.067516 434.430023,48.035435 438.093170,47.989620 
	C441.999268,47.940769 443.369141,49.915260 442.804413,54.289536 
	C438.318176,54.289536 433.910431,54.289536 429.253479,54.289536 
	C429.253479,55.973495 429.253479,57.718414 429.253479,59.855743 
	C431.966980,59.855743 434.726990,59.855743 437.445038,59.855743 
	C437.950531,64.733467 437.950531,64.733467 429.270264,65.201958 
	C429.270264,68.259712 429.270264,71.344818 429.270264,74.832321 
	C433.608612,74.832321 438.031219,74.832321 442.451660,74.832321 
	C443.854156,79.375534 442.721100,81.376816 438.000183,81.056816 
	C434.021637,80.787148 430.004364,80.867203 426.015442,81.044235 
	C422.961365,81.179787 421.777924,79.997520 421.963135,76.965202 
	C422.135345,74.144669 421.999176,71.305290 421.998779,67.979156 
z"/>
<path fill="#FEFEFE" opacity="1.000000" stroke="none" 
	d="
M497.419464,48.015160 
	C501.874146,48.002068 505.916870,47.628597 509.833771,48.168442 
	C511.603333,48.412331 513.122437,50.473587 514.755127,51.710320 
	C513.210266,52.473644 511.724609,53.687580 510.107422,53.899925 
	C507.338562,54.263489 504.487427,54.000298 501.228699,54.000298 
	C501.128265,55.848137 501.033997,57.582813 500.902618,60.000336 
	C502.994659,60.000336 504.965546,59.723949 506.802551,60.100525 
	C507.966736,60.339180 508.931580,61.550247 509.985840,62.325207 
	C508.880829,63.216850 507.814941,64.165680 506.646423,64.964409 
	C506.306244,65.196945 505.661407,65.070625 505.175873,64.990089 
	C500.839905,64.270813 499.450653,66.318733 499.974304,70.355621 
	C500.143860,71.662689 500.000946,73.010300 500.000946,75.000420 
	C503.812653,75.000420 507.590363,74.760048 511.307190,75.130470 
	C512.612671,75.260567 513.768860,76.889481 514.993225,77.834015 
	C513.713745,78.889755 512.503052,80.737656 511.142120,80.855827 
	C506.685425,81.242813 502.171112,80.901917 497.684814,81.035851 
	C494.818726,81.121414 493.928406,79.867569 493.962250,77.145592 
	C494.065643,68.831436 493.861786,60.510681 494.132568,52.204067 
	C494.178894,50.782627 495.970703,49.418095 497.419464,48.015160 
z"/>
<path fill="#FFFEFE" opacity="1.000000" stroke="none" 
	d="
M484.747864,54.997543 
	C482.141632,54.548721 479.950928,54.101566 477.907593,53.684483 
	C475.253326,57.785381 478.382355,59.273079 480.548004,60.883083 
	C482.853180,62.596771 485.446899,63.921360 487.908661,65.425568 
	C491.768127,67.783829 492.008392,71.949051 490.646851,75.039734 
	C489.523285,77.590172 486.109955,80.292915 483.382233,80.694771 
	C479.594940,81.252708 475.429749,79.978188 471.580322,78.925224 
	C470.460022,78.618767 469.865417,76.390518 469.029846,75.043213 
	C470.667389,74.519577 472.320312,73.529411 473.938782,73.582909 
	C476.298615,73.660927 478.616821,74.662552 480.989410,74.892616 
	C481.701294,74.961632 482.882263,73.915024 483.212402,73.116562 
	C483.521637,72.368721 483.327179,70.878571 482.767853,70.398842 
	C480.444519,68.405983 478.037262,66.437378 475.407532,64.890427 
	C469.606537,61.477997 467.780640,58.061859 469.837708,53.660606 
	C472.011871,49.008835 478.941315,46.499279 484.063141,48.599216 
	C485.683289,49.263466 487.189636,50.205257 489.594299,51.462471 
	C487.813293,52.884098 486.488373,53.941654 484.747864,54.997543 
z"/>
<path fill="#FEFEFE" opacity="1.000000" stroke="none" 
	d="
M203.995789,49.174870 
	C206.368790,49.127369 208.741776,49.079868 211.593262,49.433964 
	C212.756226,50.904621 213.440720,51.973686 214.125198,53.042751 
	C211.455063,53.362064 208.791443,53.866196 206.113373,53.960873 
	C201.080994,54.138771 201.077515,54.040421 201.061920,59.712894 
	C203.621140,59.905918 206.235504,59.941048 208.777756,60.387119 
	C209.611450,60.533405 210.813660,61.732819 210.831451,62.474991 
	C210.848709,63.194290 209.650314,64.439423 208.828903,64.588425 
	C206.427277,65.024055 203.947372,65.028084 201.250397,65.218765 
	C201.250397,68.304535 201.250397,71.382591 201.250397,75.001198 
	C204.984512,75.001198 208.767609,74.797981 212.506104,75.117226 
	C213.727798,75.221550 214.833389,76.685631 215.992065,77.527847 
	C214.939590,78.680138 213.946487,80.755234 212.824524,80.827415 
	C207.532181,81.167931 202.190491,81.157074 196.901489,80.779572 
	C195.855560,80.704918 194.156464,78.484802 194.130676,77.225975 
	C193.947021,68.263977 194.119705,59.294666 194.790161,50.391197 
	C198.266159,50.028099 201.130966,49.601486 203.995789,49.174870 
z"/>
<path fill="#FEFEFE" opacity="1.000000" stroke="none" 
	d="
M446.210876,52.437592 
	C450.750061,48.434837 455.501160,46.372478 461.092468,49.039501 
	C462.557709,49.738415 463.685303,51.145172 464.967957,52.226868 
	C463.071106,53.048702 461.241516,54.178562 459.259705,54.611496 
	C456.973236,55.110981 454.552429,54.995644 452.189972,55.147285 
	C452.117188,55.773415 452.044403,56.399544 451.971619,57.025669 
	C454.623932,58.830132 457.309631,60.587986 459.916718,62.455582 
	C461.628052,63.681461 463.453003,64.863991 464.832428,66.416557 
	C469.261414,71.401291 467.185913,78.479385 460.766907,80.752518 
	C455.575409,82.590958 448.600281,80.479622 444.992218,75.924225 
	C446.478546,73.311203 448.308929,71.918190 451.252228,74.053230 
	C451.637604,74.332764 452.096741,74.817863 452.462036,74.768272 
	C454.940460,74.431786 457.402832,73.977264 459.870392,73.560883 
	C458.473907,71.454826 457.400238,69.007530 455.611877,67.315697 
	C452.180969,64.070000 445.893158,63.675159 445.707458,57.249207 
	C445.664642,55.766682 445.914185,54.275711 446.210876,52.437592 
z"/>
<path fill="#FDFDFE" opacity="1.000000" stroke="none" 
	d="
M175.026672,54.005135 
	C172.131851,53.822926 168.847153,54.980980 169.015335,50.269150 
	C177.014679,50.269150 184.916382,50.269150 192.841019,50.269150 
	C192.176025,53.896976 192.176025,53.896976 184.001099,54.093708 
	C184.001099,61.494320 183.862061,68.930130 184.067017,76.356445 
	C184.153473,79.489487 182.995026,80.930397 179.985367,80.991417 
	C176.636230,81.059319 177.011932,78.616798 177.010193,76.456512 
	C177.005112,70.127052 177.078598,63.795853 176.931900,57.469723 
	C176.904892,56.305187 175.990768,55.161221 175.026672,54.005135 
z"/>
<path fill="#FEFDFC" opacity="1.000000" stroke="none" 
	d="
M285.001526,76.658401 
	C283.975555,81.583504 281.767792,82.126465 278.212769,79.839386 
	C277.794250,71.409225 277.328369,63.785770 277.095062,56.155201 
	C277.032349,54.104759 277.275604,51.836395 278.150360,50.044998 
	C278.665558,48.989868 280.924225,47.912598 281.989197,48.228062 
	C283.225220,48.594196 284.823425,50.449406 284.863098,51.702660 
	C285.121552,59.860180 284.999298,68.029755 285.001526,76.658401 
z"/>
<path fill="#217BFB" opacity="1.000000" stroke="none" 
	d="
M124.615204,48.929623 
	C122.097313,52.585247 119.233009,56.306526 116.569138,59.767399 
	C119.348305,63.330994 123.652786,66.571297 124.432892,70.509697 
	C125.171600,74.239120 122.213394,78.700813 120.527924,82.910164 
	C120.472054,80.251244 120.121307,77.228241 121.199646,74.854439 
	C123.543709,69.694420 120.996292,66.753242 117.337318,64.093445 
	C112.816353,60.807045 112.634445,59.843475 116.665733,55.883190 
	C119.103226,53.488628 121.728096,51.284805 124.615204,48.929623 
z"/>
<path fill="#1B74FA" opacity="1.000000" stroke="none" 
	d="
M141.937164,62.606510 
	C138.174835,63.147530 136.443497,60.873329 137.087708,57.420761 
	C138.280060,51.030621 140.007599,44.740345 141.802887,38.180851 
	C141.502029,41.731453 140.865753,45.503353 140.330597,49.289551 
	C139.702759,53.731373 136.640305,58.467384 141.937164,62.606510 
z"/>
<path fill="#1868F5" opacity="1.000000" stroke="none" 
	d="
M135.028717,80.273392 
	C134.454468,75.713768 137.812759,74.279724 141.745056,73.032089 
	C139.840637,75.400787 137.561859,77.760979 135.028717,80.273392 
z"/>
<path fill="#1868F5" opacity="1.000000" stroke="none" 
	d="
M130.329071,84.816551 
	C131.257217,83.334106 132.509644,81.831230 134.097382,80.548492 
	C133.172928,82.111130 131.913147,83.453629 130.329071,84.816551 
z"/>
<path fill="#F2F6FD" opacity="1.000000" stroke="none" 
	d="
M203.562714,49.093781 
	C201.130966,49.601486 198.266159,50.028099 195.179413,50.180645 
	C197.681534,49.608612 200.405579,49.310650 203.562714,49.093781 
z"/>
<path fill="#F2F6FD" opacity="1.000000" stroke="none" 
	d="
M214.476715,52.867550 
	C213.440720,51.973686 212.756226,50.904621 212.032181,49.509109 
	C215.574997,48.221905 215.222107,50.440567 214.476715,52.867550 
z"/>
<path fill="#F5F6F7" opacity="1.000000" stroke="none" 
	d="
M336.399963,53.063622 
	C335.700867,52.034691 335.352417,50.952633 334.998169,49.524643 
	C338.305084,51.173130 338.414368,51.411339 336.399963,53.063622 
z"/>
<path fill="#1B74FA" opacity="1.000000" stroke="none" 
	d="
M144.283478,63.992691 
	C143.653427,64.038513 142.889069,63.832008 142.092819,63.256218 
	C142.757019,63.171410 143.453094,63.455887 144.283478,63.992691 
z"/>
<path fill="#1B74FA" opacity="1.000000" stroke="none" 
	d="
M145.390244,66.935043 
	C144.851303,66.439667 144.584625,65.818810 144.546204,64.889374 
	C145.070450,65.323715 145.366470,66.066643 145.390244,66.935043 
z"/>
<path fill="#F5F6F7" opacity="1.000000" stroke="none" 
	d="
M317.726532,49.118210 
	C317.848969,49.464813 317.630219,49.686371 317.110718,49.897724 
	C317.073822,49.660553 317.265594,49.362431 317.726532,49.118210 
z"/>
<path fill="#217BFB" opacity="1.000000" stroke="none" 
	d="
M128.702118,45.158516 
	C128.824661,45.473026 128.607620,45.689548 128.085342,45.895863 
	C128.056519,45.693092 128.250671,45.418049 128.702118,45.158516 
z"/>
<path fill="transparent" opacity="1.000000" stroke="none" 
	d="
M406.510559,54.200539 
	C411.663055,55.236401 412.832550,58.501957 411.933929,62.622227 
	C410.615295,68.668388 405.590698,66.620659 401.707458,67.002792 
	C399.358154,57.305161 400.436554,54.165684 406.510559,54.200539 
z"/>
<path fill="transparent" opacity="1.000000" stroke="none" 
	d="
M380.993896,66.479675 
	C378.283051,66.802299 375.854370,66.802299 373.212616,66.802299 
	C373.212616,62.652153 373.212616,58.595745 373.212616,54.142448 
	C376.885559,53.874802 380.576080,53.471291 382.963043,57.099281 
	C385.205688,60.507927 383.983582,63.534374 380.993896,66.479675 
z"/>
</svg>